<svg preserveAspectRatio="none" width="100%" height="100%" overflow="visible" style="display: block;" viewBox="0 0 22 22" fill="none" xmlns="http://www.w3.org/2000/svg">
<g id="SVG" clip-path="url(#clip0_0_14)">
<path id="Vector" d="M18.7431 18.7477H15.4853V13.6428C15.4853 12.4254 15.4605 10.8588 13.7876 10.8588C12.089 10.8588 11.8296 12.1834 11.8296 13.5529V18.7477H8.57175V8.25H11.7013V9.68092H11.7434C12.1807 8.85592 13.244 7.98508 14.8326 7.98508C18.1335 7.98508 18.744 10.1576 18.744 12.9855L18.7431 18.7477ZM4.89225 6.81358C4.64372 6.8137 4.39761 6.76481 4.168 6.6697C3.93839 6.5746 3.72979 6.43514 3.55413 6.25932C3.37848 6.0835 3.23923 5.87476 3.14434 5.64506C3.04946 5.41536 3.00081 5.1692 3.00117 4.92067C3.00135 4.54646 3.11249 4.18072 3.32054 3.86968C3.52858 3.55865 3.82419 3.31629 4.16998 3.17325C4.51576 3.03022 4.8962 2.99294 5.26318 3.06612C5.63015 3.1393 5.96719 3.31966 6.23166 3.58439C6.49613 3.84912 6.67617 4.18632 6.74899 4.55337C6.82182 4.92042 6.78416 5.30082 6.6408 5.64647C6.49743 5.99212 6.25478 6.28749 5.94354 6.49523C5.6323 6.70298 5.26645 6.81376 4.89225 6.81358ZM6.52575 18.7477H3.25875V8.25H6.52575V18.7477ZM20.3729 0H1.62342C0.726 0 0 0.7095 0 1.58492V20.4151C0 21.2914 0.726 22 1.62342 22H20.3702C21.2667 22 22 21.2914 22 20.4151V1.58492C22 0.7095 21.2667 0 20.3702 0H20.3729Z" fill="var(--fill-0, black)"/>
</g>
<defs>
<clipPath id="clip0_0_14">
<rect width="22" height="22" fill="white"/>
</clipPath>
</defs>
</svg>
