<svg xmlns="http://www.w3.org/2000/svg" viewBox="0 0 24 24" fill="#000000">
  <path d="M17.47 14.38c-.29-.15-1.7-.84-1.96-.93-.26-.1-.46-.15-.65.15-.19.29-.75.93-.92 1.12-.17.19-.34.22-.63.07-.29-.15-1.22-.45-2.33-1.44-.86-.77-1.44-1.71-1.61-2-.17-.29-.02-.45.13-.6.13-.13.29-.34.44-.51.15-.17.19-.29.29-.48.1-.19.05-.36-.02-.51-.07-.15-.65-1.57-.9-2.15-.24-.57-.48-.49-.65-.5h-.56c-.19 0-.51.07-.78.36-.26.29-1.02 1-1.02 2.44s1.05 2.83 1.19 3.02c.15.19 2.06 3.14 4.99 4.4.7.3 1.24.48 1.67.62.7.22 1.34.19 1.84.12.56-.08 1.7-.7 1.94-1.37.24-.68.24-1.26.17-1.38-.07-.12-.26-.19-.55-.34z"/>
  <path d="M12.02 2C6.5 2 2.03 6.47 2.03 12c0 1.79.47 3.47 1.29 4.93L2 22l5.2-1.28A9.94 9.94 0 0 0 12.02 22C17.55 22 22 17.53 22 12S17.55 2 12.02 2zm0 18.15c-1.64 0-3.16-.47-4.44-1.28l-.32-.19-3.09.76.76-3.01-.21-.32a8.13 8.13 0 0 1-1.29-4.11c0-4.49 3.65-8.15 8.15-8.15S20.17 7.5 20.17 12s-3.65 8.15-8.15 8.15z"/>
</svg>
